<svg width="229" height="268" viewBox="0 0 229 268" fill="none" xmlns="http://www.w3.org/2000/svg">
<g filter="url(#filter0_i_826_111)">
<path d="M56.7188 29.8291C56.8469 29.907 56.8469 30.093 56.7188 30.1709L14.5539 55.7961C14.4206 55.8771 14.25 55.7811 14.25 55.6252V4.37482C14.25 4.21886 14.4206 4.12291 14.5539 4.20391L56.7188 29.8291Z" fill="#B91C1C"/>
</g>
<g filter="url(#filter1_i_826_111)">
<path d="M56.7188 81.8291C56.8469 81.907 56.8469 82.093 56.7188 82.1709L14.5539 107.796C14.4206 107.877 14.25 107.781 14.25 107.625V56.3748C14.25 56.2189 14.4206 56.1229 14.5539 56.2039L56.7188 81.8291Z" fill="#B91C1C"/>
</g>
<g filter="url(#filter2_i_826_111)">
<path d="M56.7188 133.829C56.8469 133.907 56.8469 134.093 56.7188 134.171L14.5539 159.796C14.4206 159.877 14.25 159.781 14.25 159.625V108.375C14.25 108.219 14.4206 108.123 14.5539 108.204L56.7188 133.829Z" fill="#B91C1C"/>
</g>
<g filter="url(#filter3_i_826_111)">
<path d="M56.7188 185.829C56.8469 185.907 56.8469 186.093 56.7188 186.171L14.5539 211.796C14.4206 211.877 14.25 211.781 14.25 211.625V160.375C14.25 160.219 14.4206 160.123 14.5539 160.204L56.7188 185.829Z" fill="#B91C1C"/>
</g>
<g filter="url(#filter4_i_826_111)">
<path d="M99.7188 55.8291C99.8469 55.907 99.8469 56.093 99.7188 56.1709L57.5539 81.7961C57.4206 81.8771 57.25 81.7811 57.25 81.6252V30.3748C57.25 30.2189 57.4206 30.1229 57.5539 30.2039L99.7188 55.8291Z" fill="#B91C1C"/>
</g>
<g filter="url(#filter5_i_826_111)">
<path d="M142.719 81.8291C142.847 81.907 142.847 82.093 142.719 82.1709L100.554 107.796C100.421 107.877 100.25 107.781 100.25 107.625V56.3748C100.25 56.2189 100.421 56.1229 100.554 56.2039L142.719 81.8291Z" fill="#B91C1C"/>
</g>
<g filter="url(#filter6_i_826_111)">
<path d="M185.719 107.829C185.847 107.907 185.847 108.093 185.719 108.171L143.554 133.796C143.421 133.877 143.25 133.781 143.25 133.625V82.3748C143.25 82.2189 143.421 82.1229 143.554 82.2039L185.719 107.829Z" fill="#B91C1C"/>
</g>
<g filter="url(#filter7_i_826_111)">
<path d="M185.719 159.829C185.847 159.907 185.847 160.093 185.719 160.171L143.554 185.796C143.421 185.877 143.25 185.781 143.25 185.625V134.375C143.25 134.219 143.421 134.123 143.554 134.204L185.719 159.829Z" fill="#B91C1C"/>
</g>
<g filter="url(#filter8_i_826_111)">
<path d="M228.719 133.829C228.847 133.907 228.847 134.093 228.719 134.171L186.554 159.796C186.421 159.877 186.25 159.781 186.25 159.625V108.375C186.25 108.219 186.421 108.123 186.554 108.204L228.719 133.829Z" fill="#B91C1C"/>
</g>
<g filter="url(#filter9_i_826_111)">
<path d="M142.719 133.829C142.847 133.907 142.847 134.093 142.719 134.171L100.554 159.796C100.421 159.877 100.25 159.781 100.25 159.625V108.375C100.25 108.219 100.421 108.123 100.554 108.204L142.719 133.829Z" fill="#B91C1C"/>
</g>
<g filter="url(#filter10_i_826_111)">
<path d="M142.719 185.829C142.847 185.907 142.847 186.093 142.719 186.171L100.554 211.796C100.421 211.877 100.25 211.781 100.25 211.625V160.375C100.25 160.219 100.421 160.123 100.554 160.204L142.719 185.829Z" fill="#B91C1C"/>
</g>
<g filter="url(#filter11_i_826_111)">
<path d="M99.7188 107.829C99.8469 107.907 99.8469 108.093 99.7188 108.171L57.5539 133.796C57.4206 133.877 57.25 133.781 57.25 133.625V82.3748C57.25 82.2189 57.4206 82.1229 57.5539 82.2039L99.7188 107.829Z" fill="#B91C1C"/>
</g>
<g filter="url(#filter12_i_826_111)">
<path d="M99.7188 159.829C99.8469 159.907 99.8469 160.093 99.7188 160.171L57.5539 185.796C57.4206 185.877 57.25 185.781 57.25 185.625V134.375C57.25 134.219 57.4206 134.123 57.5539 134.204L99.7188 159.829Z" fill="#B91C1C"/>
</g>
<g filter="url(#filter13_i_826_111)">
<path d="M99.7188 211.829C99.8469 211.907 99.8469 212.093 99.7188 212.171L57.5539 237.796C57.4206 237.877 57.25 237.781 57.25 237.625V186.375C57.25 186.219 57.4206 186.123 57.5539 186.204L99.7188 211.829Z" fill="#B91C1C"/>
</g>
<g filter="url(#filter14_i_826_111)">
<path d="M56.7188 237.829C56.8469 237.907 56.8469 238.093 56.7188 238.171L14.5539 263.796C14.4206 263.877 14.25 263.781 14.25 263.625V212.375C14.25 212.219 14.4206 212.123 14.5539 212.204L56.7188 237.829Z" fill="#B91C1C"/>
</g>
<defs>
<filter id="filter0_i_826_111" x="14.25" y="4.1748" width="42.5649" height="55.6504" filterUnits="userSpaceOnUse" color-interpolation-filters="sRGB">
<feFlood flood-opacity="0" result="BackgroundImageFix"/>
<feBlend mode="normal" in="SourceGraphic" in2="BackgroundImageFix" result="shape"/>
<feColorMatrix in="SourceAlpha" type="matrix" values="0 0 0 0 0 0 0 0 0 0 0 0 0 0 0 0 0 0 127 0" result="hardAlpha"/>
<feOffset dy="4"/>
<feGaussianBlur stdDeviation="2"/>
<feComposite in2="hardAlpha" operator="arithmetic" k2="-1" k3="1"/>
<feColorMatrix type="matrix" values="0 0 0 0 0 0 0 0 0 0 0 0 0 0 0 0 0 0 0.25 0"/>
<feBlend mode="normal" in2="shape" result="effect1_innerShadow_826_111"/>
</filter>
<filter id="filter1_i_826_111" x="14.25" y="56.1748" width="42.5649" height="55.6504" filterUnits="userSpaceOnUse" color-interpolation-filters="sRGB">
<feFlood flood-opacity="0" result="BackgroundImageFix"/>
<feBlend mode="normal" in="SourceGraphic" in2="BackgroundImageFix" result="shape"/>
<feColorMatrix in="SourceAlpha" type="matrix" values="0 0 0 0 0 0 0 0 0 0 0 0 0 0 0 0 0 0 127 0" result="hardAlpha"/>
<feOffset dy="4"/>
<feGaussianBlur stdDeviation="2"/>
<feComposite in2="hardAlpha" operator="arithmetic" k2="-1" k3="1"/>
<feColorMatrix type="matrix" values="0 0 0 0 0 0 0 0 0 0 0 0 0 0 0 0 0 0 0.25 0"/>
<feBlend mode="normal" in2="shape" result="effect1_innerShadow_826_111"/>
</filter>
<filter id="filter2_i_826_111" x="14.25" y="108.175" width="42.5649" height="55.6504" filterUnits="userSpaceOnUse" color-interpolation-filters="sRGB">
<feFlood flood-opacity="0" result="BackgroundImageFix"/>
<feBlend mode="normal" in="SourceGraphic" in2="BackgroundImageFix" result="shape"/>
<feColorMatrix in="SourceAlpha" type="matrix" values="0 0 0 0 0 0 0 0 0 0 0 0 0 0 0 0 0 0 127 0" result="hardAlpha"/>
<feOffset dy="4"/>
<feGaussianBlur stdDeviation="2"/>
<feComposite in2="hardAlpha" operator="arithmetic" k2="-1" k3="1"/>
<feColorMatrix type="matrix" values="0 0 0 0 0 0 0 0 0 0 0 0 0 0 0 0 0 0 0.25 0"/>
<feBlend mode="normal" in2="shape" result="effect1_innerShadow_826_111"/>
</filter>
<filter id="filter3_i_826_111" x="14.25" y="160.175" width="42.5649" height="55.6504" filterUnits="userSpaceOnUse" color-interpolation-filters="sRGB">
<feFlood flood-opacity="0" result="BackgroundImageFix"/>
<feBlend mode="normal" in="SourceGraphic" in2="BackgroundImageFix" result="shape"/>
<feColorMatrix in="SourceAlpha" type="matrix" values="0 0 0 0 0 0 0 0 0 0 0 0 0 0 0 0 0 0 127 0" result="hardAlpha"/>
<feOffset dy="4"/>
<feGaussianBlur stdDeviation="2"/>
<feComposite in2="hardAlpha" operator="arithmetic" k2="-1" k3="1"/>
<feColorMatrix type="matrix" values="0 0 0 0 0 0 0 0 0 0 0 0 0 0 0 0 0 0 0.25 0"/>
<feBlend mode="normal" in2="shape" result="effect1_innerShadow_826_111"/>
</filter>
<filter id="filter4_i_826_111" x="57.25" y="30.1748" width="42.5649" height="55.6504" filterUnits="userSpaceOnUse" color-interpolation-filters="sRGB">
<feFlood flood-opacity="0" result="BackgroundImageFix"/>
<feBlend mode="normal" in="SourceGraphic" in2="BackgroundImageFix" result="shape"/>
<feColorMatrix in="SourceAlpha" type="matrix" values="0 0 0 0 0 0 0 0 0 0 0 0 0 0 0 0 0 0 127 0" result="hardAlpha"/>
<feOffset dy="4"/>
<feGaussianBlur stdDeviation="2"/>
<feComposite in2="hardAlpha" operator="arithmetic" k2="-1" k3="1"/>
<feColorMatrix type="matrix" values="0 0 0 0 0 0 0 0 0 0 0 0 0 0 0 0 0 0 0.25 0"/>
<feBlend mode="normal" in2="shape" result="effect1_innerShadow_826_111"/>
</filter>
<filter id="filter5_i_826_111" x="100.25" y="56.1748" width="42.5649" height="55.6504" filterUnits="userSpaceOnUse" color-interpolation-filters="sRGB">
<feFlood flood-opacity="0" result="BackgroundImageFix"/>
<feBlend mode="normal" in="SourceGraphic" in2="BackgroundImageFix" result="shape"/>
<feColorMatrix in="SourceAlpha" type="matrix" values="0 0 0 0 0 0 0 0 0 0 0 0 0 0 0 0 0 0 127 0" result="hardAlpha"/>
<feOffset dy="4"/>
<feGaussianBlur stdDeviation="2"/>
<feComposite in2="hardAlpha" operator="arithmetic" k2="-1" k3="1"/>
<feColorMatrix type="matrix" values="0 0 0 0 0 0 0 0 0 0 0 0 0 0 0 0 0 0 0.25 0"/>
<feBlend mode="normal" in2="shape" result="effect1_innerShadow_826_111"/>
</filter>
<filter id="filter6_i_826_111" x="143.25" y="82.1748" width="42.5649" height="55.6504" filterUnits="userSpaceOnUse" color-interpolation-filters="sRGB">
<feFlood flood-opacity="0" result="BackgroundImageFix"/>
<feBlend mode="normal" in="SourceGraphic" in2="BackgroundImageFix" result="shape"/>
<feColorMatrix in="SourceAlpha" type="matrix" values="0 0 0 0 0 0 0 0 0 0 0 0 0 0 0 0 0 0 127 0" result="hardAlpha"/>
<feOffset dy="4"/>
<feGaussianBlur stdDeviation="2"/>
<feComposite in2="hardAlpha" operator="arithmetic" k2="-1" k3="1"/>
<feColorMatrix type="matrix" values="0 0 0 0 0 0 0 0 0 0 0 0 0 0 0 0 0 0 0.25 0"/>
<feBlend mode="normal" in2="shape" result="effect1_innerShadow_826_111"/>
</filter>
<filter id="filter7_i_826_111" x="143.25" y="134.175" width="42.5649" height="55.6504" filterUnits="userSpaceOnUse" color-interpolation-filters="sRGB">
<feFlood flood-opacity="0" result="BackgroundImageFix"/>
<feBlend mode="normal" in="SourceGraphic" in2="BackgroundImageFix" result="shape"/>
<feColorMatrix in="SourceAlpha" type="matrix" values="0 0 0 0 0 0 0 0 0 0 0 0 0 0 0 0 0 0 127 0" result="hardAlpha"/>
<feOffset dy="4"/>
<feGaussianBlur stdDeviation="2"/>
<feComposite in2="hardAlpha" operator="arithmetic" k2="-1" k3="1"/>
<feColorMatrix type="matrix" values="0 0 0 0 0 0 0 0 0 0 0 0 0 0 0 0 0 0 0.25 0"/>
<feBlend mode="normal" in2="shape" result="effect1_innerShadow_826_111"/>
</filter>
<filter id="filter8_i_826_111" x="186.25" y="108.175" width="42.5649" height="55.6504" filterUnits="userSpaceOnUse" color-interpolation-filters="sRGB">
<feFlood flood-opacity="0" result="BackgroundImageFix"/>
<feBlend mode="normal" in="SourceGraphic" in2="BackgroundImageFix" result="shape"/>
<feColorMatrix in="SourceAlpha" type="matrix" values="0 0 0 0 0 0 0 0 0 0 0 0 0 0 0 0 0 0 127 0" result="hardAlpha"/>
<feOffset dy="4"/>
<feGaussianBlur stdDeviation="2"/>
<feComposite in2="hardAlpha" operator="arithmetic" k2="-1" k3="1"/>
<feColorMatrix type="matrix" values="0 0 0 0 0 0 0 0 0 0 0 0 0 0 0 0 0 0 0.25 0"/>
<feBlend mode="normal" in2="shape" result="effect1_innerShadow_826_111"/>
</filter>
<filter id="filter9_i_826_111" x="100.25" y="108.175" width="42.5649" height="55.6504" filterUnits="userSpaceOnUse" color-interpolation-filters="sRGB">
<feFlood flood-opacity="0" result="BackgroundImageFix"/>
<feBlend mode="normal" in="SourceGraphic" in2="BackgroundImageFix" result="shape"/>
<feColorMatrix in="SourceAlpha" type="matrix" values="0 0 0 0 0 0 0 0 0 0 0 0 0 0 0 0 0 0 127 0" result="hardAlpha"/>
<feOffset dy="4"/>
<feGaussianBlur stdDeviation="2"/>
<feComposite in2="hardAlpha" operator="arithmetic" k2="-1" k3="1"/>
<feColorMatrix type="matrix" values="0 0 0 0 0 0 0 0 0 0 0 0 0 0 0 0 0 0 0.25 0"/>
<feBlend mode="normal" in2="shape" result="effect1_innerShadow_826_111"/>
</filter>
<filter id="filter10_i_826_111" x="100.25" y="160.175" width="42.5649" height="55.6504" filterUnits="userSpaceOnUse" color-interpolation-filters="sRGB">
<feFlood flood-opacity="0" result="BackgroundImageFix"/>
<feBlend mode="normal" in="SourceGraphic" in2="BackgroundImageFix" result="shape"/>
<feColorMatrix in="SourceAlpha" type="matrix" values="0 0 0 0 0 0 0 0 0 0 0 0 0 0 0 0 0 0 127 0" result="hardAlpha"/>
<feOffset dy="4"/>
<feGaussianBlur stdDeviation="2"/>
<feComposite in2="hardAlpha" operator="arithmetic" k2="-1" k3="1"/>
<feColorMatrix type="matrix" values="0 0 0 0 0 0 0 0 0 0 0 0 0 0 0 0 0 0 0.25 0"/>
<feBlend mode="normal" in2="shape" result="effect1_innerShadow_826_111"/>
</filter>
<filter id="filter11_i_826_111" x="57.25" y="82.1748" width="42.5649" height="55.6504" filterUnits="userSpaceOnUse" color-interpolation-filters="sRGB">
<feFlood flood-opacity="0" result="BackgroundImageFix"/>
<feBlend mode="normal" in="SourceGraphic" in2="BackgroundImageFix" result="shape"/>
<feColorMatrix in="SourceAlpha" type="matrix" values="0 0 0 0 0 0 0 0 0 0 0 0 0 0 0 0 0 0 127 0" result="hardAlpha"/>
<feOffset dy="4"/>
<feGaussianBlur stdDeviation="2"/>
<feComposite in2="hardAlpha" operator="arithmetic" k2="-1" k3="1"/>
<feColorMatrix type="matrix" values="0 0 0 0 0 0 0 0 0 0 0 0 0 0 0 0 0 0 0.25 0"/>
<feBlend mode="normal" in2="shape" result="effect1_innerShadow_826_111"/>
</filter>
<filter id="filter12_i_826_111" x="57.25" y="134.175" width="42.5649" height="55.6504" filterUnits="userSpaceOnUse" color-interpolation-filters="sRGB">
<feFlood flood-opacity="0" result="BackgroundImageFix"/>
<feBlend mode="normal" in="SourceGraphic" in2="BackgroundImageFix" result="shape"/>
<feColorMatrix in="SourceAlpha" type="matrix" values="0 0 0 0 0 0 0 0 0 0 0 0 0 0 0 0 0 0 127 0" result="hardAlpha"/>
<feOffset dy="4"/>
<feGaussianBlur stdDeviation="2"/>
<feComposite in2="hardAlpha" operator="arithmetic" k2="-1" k3="1"/>
<feColorMatrix type="matrix" values="0 0 0 0 0 0 0 0 0 0 0 0 0 0 0 0 0 0 0.25 0"/>
<feBlend mode="normal" in2="shape" result="effect1_innerShadow_826_111"/>
</filter>
<filter id="filter13_i_826_111" x="57.25" y="186.175" width="42.5649" height="55.6504" filterUnits="userSpaceOnUse" color-interpolation-filters="sRGB">
<feFlood flood-opacity="0" result="BackgroundImageFix"/>
<feBlend mode="normal" in="SourceGraphic" in2="BackgroundImageFix" result="shape"/>
<feColorMatrix in="SourceAlpha" type="matrix" values="0 0 0 0 0 0 0 0 0 0 0 0 0 0 0 0 0 0 127 0" result="hardAlpha"/>
<feOffset dy="4"/>
<feGaussianBlur stdDeviation="2"/>
<feComposite in2="hardAlpha" operator="arithmetic" k2="-1" k3="1"/>
<feColorMatrix type="matrix" values="0 0 0 0 0 0 0 0 0 0 0 0 0 0 0 0 0 0 0.25 0"/>
<feBlend mode="normal" in2="shape" result="effect1_innerShadow_826_111"/>
</filter>
<filter id="filter14_i_826_111" x="14.25" y="212.175" width="42.5649" height="55.6504" filterUnits="userSpaceOnUse" color-interpolation-filters="sRGB">
<feFlood flood-opacity="0" result="BackgroundImageFix"/>
<feBlend mode="normal" in="SourceGraphic" in2="BackgroundImageFix" result="shape"/>
<feColorMatrix in="SourceAlpha" type="matrix" values="0 0 0 0 0 0 0 0 0 0 0 0 0 0 0 0 0 0 127 0" result="hardAlpha"/>
<feOffset dy="4"/>
<feGaussianBlur stdDeviation="2"/>
<feComposite in2="hardAlpha" operator="arithmetic" k2="-1" k3="1"/>
<feColorMatrix type="matrix" values="0 0 0 0 0 0 0 0 0 0 0 0 0 0 0 0 0 0 0.25 0"/>
<feBlend mode="normal" in2="shape" result="effect1_innerShadow_826_111"/>
</filter>
</defs>
</svg>
